<svg xmlns="http://www.w3.org/2000/svg" viewBox="0 0 24 24" aria-hidden="true" focusable="false">
  <title>Free</title>
  <defs>
    <clipPath id="free-rounded">
      <rect width="24" height="24" rx="5" />
    </clipPath>
  </defs>
  <g clip-path="url(#free-rounded)">
    <rect width="24" height="24" fill="#10B981" />
    <rect x="0.75" y="0.75" width="22.5" height="22.5" rx="4.25" fill="none" stroke="#059669" />

    <!-- Gift box icon -->
    <path d="M12 6.5c-.8 0-1.5-.7-1.5-1.5S11.2 3.5 12 3.5s1.5.7 1.5 1.5-.7 1.5-1.5 1.5z" fill="#FFFFFF" opacity="0.9"/>
    <rect x="6" y="9" width="12" height="2.5" rx="0.5" fill="#FFFFFF"/>
    <rect x="6" y="11.5" width="12" height="8" rx="1" fill="#FFFFFF" opacity="0.9"/>
    <rect x="11.25" y="11.5" width="1.5" height="8" fill="#10B981"/>
    <path d="M9.5 6.5c.8-.8 1.5-1.5 2.5-1.5M14.5 6.5c-.8-.8-1.5-1.5-2.5-1.5" stroke="#FFFFFF" stroke-width="1.2" stroke-linecap="round" fill="none"/>
  </g>
</svg>
