<svg xmlns="http://www.w3.org/2000/svg" viewBox="0 0 512 512" role="img" aria-label="Qreminder">
  <defs>
    <linearGradient id="bg" x1="64" y1="48" x2="464" y2="464" gradientUnits="userSpaceOnUse">
      <stop offset="0" stop-color="#171C24"/>
      <stop offset="0.58" stop-color="#111720"/>
      <stop offset="1" stop-color="#0B1119"/>
    </linearGradient>
    <radialGradient id="glow" cx="400" cy="128" r="336" gradientUnits="userSpaceOnUse">
      <stop offset="0" stop-color="#10B981" stop-opacity="0.24"/>
      <stop offset="0.52" stop-color="#10B981" stop-opacity="0.08"/>
      <stop offset="1" stop-color="#10B981" stop-opacity="0"/>
    </radialGradient>
  </defs>
  <rect x="32" y="32" width="448" height="448" rx="144" fill="url(#bg)"/>
  <rect x="44" y="44" width="424" height="424" rx="132" fill="url(#glow)" stroke="#26313D" stroke-width="12"/>
  <g transform="translate(93.5 116.25) scale(13)">
    <path d="M12 2C8.686 2 6 4.686 6 8v3.5c0 1.5-.667 2.833-2 4 .333.333 2.333.5 8 .5s7.667-.167 8-.5c-1.333-1.167-2-2.5-2-4V8c0-3.314-2.686-6-6-6Z" fill="#F8FAFC" opacity="0.9"/>
    <path d="M10 17.5c0 1.105.895 2 2 2s2-.895 2-2" stroke="#F8FAFC" stroke-width="1.5" stroke-linecap="round" fill="none"/>
    <circle cx="18" cy="5" r="3" fill="#10B981"/>
  </g>
</svg>
