<svg xmlns="http://www.w3.org/2000/svg" viewBox="0 0 64 64" role="img" aria-label="Qreminder">
  <defs>
    <linearGradient id="bg" x1="8" y1="6" x2="58" y2="58" gradientUnits="userSpaceOnUse">
      <stop offset="0" stop-color="#171C24"/>
      <stop offset="0.58" stop-color="#111720"/>
      <stop offset="1" stop-color="#0B1119"/>
    </linearGradient>
    <radialGradient id="glow" cx="50" cy="16" r="42" gradientUnits="userSpaceOnUse">
      <stop offset="0" stop-color="#10B981" stop-opacity="0.24"/>
      <stop offset="0.52" stop-color="#10B981" stop-opacity="0.08"/>
      <stop offset="1" stop-color="#10B981" stop-opacity="0"/>
    </radialGradient>
  </defs>
  <rect x="4" y="4" width="56" height="56" rx="18" fill="url(#bg)"/>
  <rect x="5.5" y="5.5" width="53" height="53" rx="16.5" fill="url(#glow)" stroke="#26313D" stroke-width="1.5"/>
  <g transform="translate(13.88 16.41) scale(1.45)">
    <path d="M12 2C8.686 2 6 4.686 6 8v3.5c0 1.5-.667 2.833-2 4 .333.333 2.333.5 8 .5s7.667-.167 8-.5c-1.333-1.167-2-2.5-2-4V8c0-3.314-2.686-6-6-6Z" fill="#F8FAFC" opacity="0.9"/>
    <path d="M10 17.5c0 1.105.895 2 2 2s2-.895 2-2" stroke="#F8FAFC" stroke-width="1.5" stroke-linecap="round" fill="none"/>
    <circle cx="18" cy="5" r="3" fill="#10B981"/>
  </g>
</svg>
